<svg width="66" height="64" viewBox="0 0 66 64" fill="none" xmlns="http://www.w3.org/2000/svg">
<g clip-path="url(#clip0_9_447)">
<path d="M45.7473 40.5044C56.1054 40.5044 64.5024 32.1074 64.5024 21.7493C64.5024 11.3911 56.1054 2.99414 45.7473 2.99414C35.3891 2.99414 26.9922 11.3911 26.9922 21.7493C26.9922 32.1074 35.3891 40.5044 45.7473 40.5044Z" stroke="#FDFDFD" stroke-width="1.8"/>
<path d="M32.7082 60.7817C43.0664 60.7817 51.4633 52.3848 51.4633 42.0266C51.4633 31.6685 43.0664 23.2715 32.7082 23.2715C22.3501 23.2715 13.9531 31.6685 13.9531 42.0266C13.9531 52.3848 22.3501 60.7817 32.7082 60.7817Z" stroke="#FDFDFD" stroke-width="1.8"/>
<path d="M20.2551 40.5044C30.6133 40.5044 39.0102 32.1074 39.0102 21.7493C39.0102 11.3911 30.6133 2.99414 20.2551 2.99414C9.89698 2.99414 1.5 11.3911 1.5 21.7493C1.5 32.1074 9.89698 40.5044 20.2551 40.5044Z" stroke="#FDFDFD" stroke-width="1.8"/>
<path d="M1.57422 20.3769L15.6224 34.3527M4.25352 11.9044L20.2569 27.9802M9.8294 6.1838L27.1362 24.0699M28.7293 13.8596L17.5776 3.21484" stroke="#FDFDFD" stroke-width="1.8"/>
</g>
<defs>
<clipPath id="clip0_9_447">
<rect width="64.8" height="63" fill="white" transform="translate(0.601562 0.371094)"/>
</clipPath>
</defs>
</svg>
