<svg width="31" height="32" viewBox="0 0 31 32" fill="none" xmlns="http://www.w3.org/2000/svg">
<path d="M11.3539 14.4326C11.2024 14.4175 11.0207 14.4175 10.8541 14.4326C7.24989 14.3115 4.3877 11.3584 4.3877 7.72388C4.3877 4.01363 7.38618 1 11.1116 1C14.8218 1 17.8354 4.01363 17.8354 7.72388C17.8203 11.3584 14.9581 14.3115 11.3539 14.4326Z" stroke="black" stroke-width="1.8" stroke-linecap="round" stroke-linejoin="round"/>
<path d="M22.3385 4.02808C25.2764 4.02808 27.6388 6.40566 27.6388 9.32843C27.6388 12.1906 25.3672 14.5228 22.5353 14.6288C22.4142 14.6136 22.2779 14.6136 22.1416 14.6288" stroke="black" stroke-width="1.8" stroke-linecap="round" stroke-linejoin="round"/>
<path d="M3.78377 20.0207C0.118952 22.474 0.118952 26.472 3.78377 28.9101C7.94833 31.6966 14.7782 31.6966 18.9428 28.9101C22.6076 26.4568 22.6076 22.4589 18.9428 20.0207C14.7934 17.2494 7.96348 17.2494 3.78377 20.0207Z" stroke="black" stroke-width="1.8" stroke-linecap="round" stroke-linejoin="round"/>
<path d="M25.2598 28.259C26.3501 28.0318 27.3799 27.5927 28.228 26.9415C30.5904 25.1696 30.5904 22.2469 28.228 20.475C27.395 19.839 26.3804 19.415 25.3052 19.1727" stroke="black" stroke-width="1.8" stroke-linecap="round" stroke-linejoin="round"/>
</svg>
