<svg width="31" height="31" viewBox="0 0 31 31" fill="none" xmlns="http://www.w3.org/2000/svg">
<path d="M5.9045 24.6904V20.5537C5.9045 19.1796 6.98117 17.9471 8.51117 17.9471C9.88533 17.9471 11.1178 19.0237 11.1178 20.5537V24.5346C11.1178 27.2971 8.82283 29.5921 6.06033 29.5921C3.29783 29.5921 1.00283 27.2829 1.00283 24.5346V15.8079C0.847001 7.84622 7.137 1.40039 15.0987 1.40039C23.0603 1.40039 29.3362 7.84622 29.3362 15.6521V24.3787C29.3362 27.1412 27.0412 29.4362 24.2787 29.4362C21.5162 29.4362 19.2212 27.1412 19.2212 24.3787V20.3979C19.2212 19.0237 20.2978 17.7912 21.8278 17.7912C23.202 17.7912 24.4345 18.8679 24.4345 20.3979V24.6904" stroke="black" stroke-width="1.8" stroke-linecap="round" stroke-linejoin="round"/>
</svg>
