<svg width="31" height="32" viewBox="0 0 31 32" fill="none" xmlns="http://www.w3.org/2000/svg">
<path d="M11.3186 14.4326C11.1672 14.4175 10.9855 14.4175 10.8189 14.4326C7.21464 14.3115 4.35245 11.3584 4.35245 7.72388C4.35245 4.01363 7.35093 1 11.0763 1C14.7866 1 17.8002 4.01363 17.8002 7.72388C17.7851 11.3584 14.9229 14.3115 11.3186 14.4326Z" stroke="white" stroke-width="1.8" stroke-linecap="round" stroke-linejoin="round"/>
<path d="M22.3035 4.02808C25.2414 4.02808 27.6038 6.40567 27.6038 9.32844C27.6038 12.1906 25.3322 14.5228 22.5003 14.6288C22.3792 14.6136 22.2429 14.6136 22.1066 14.6288" stroke="white" stroke-width="1.8" stroke-linecap="round" stroke-linejoin="round"/>
<path d="M3.74861 20.0207C0.0837959 22.474 0.0837959 26.472 3.74861 28.9101C7.91318 31.6966 14.7431 31.6966 18.9076 28.9101C22.5724 26.4568 22.5724 22.4589 18.9076 20.0207C14.7582 17.2494 7.92832 17.2494 3.74861 20.0207Z" stroke="white" stroke-width="1.8" stroke-linecap="round" stroke-linejoin="round"/>
<path d="M25.2247 28.259C26.315 28.0318 27.3448 27.5927 28.1929 26.9415C30.5553 25.1697 30.5553 22.2469 28.1929 20.4751C27.3599 19.839 26.3453 19.415 25.2701 19.1727" stroke="white" stroke-width="1.8" stroke-linecap="round" stroke-linejoin="round"/>
</svg>
