<svg width="31" height="31" viewBox="0 0 31 31" fill="none" xmlns="http://www.w3.org/2000/svg">
<path d="M5.9045 24.29V20.1533C5.9045 18.7792 6.98117 17.5467 8.51117 17.5467C9.88533 17.5467 11.1178 18.6233 11.1178 20.1533V24.1342C11.1178 26.8967 8.82283 29.1917 6.06033 29.1917C3.29783 29.1917 1.00283 26.8825 1.00283 24.1342V15.4075C0.847001 7.44583 7.137 1 15.0987 1C23.0603 1 29.3362 7.44583 29.3362 15.2517V23.9783C29.3362 26.7408 27.0412 29.0358 24.2787 29.0358C21.5162 29.0358 19.2212 26.7408 19.2212 23.9783V19.9975C19.2212 18.6233 20.2978 17.3908 21.8278 17.3908C23.202 17.3908 24.4345 18.4675 24.4345 19.9975V24.29" stroke="white" stroke-width="1.8" stroke-linecap="round" stroke-linejoin="round"/>
</svg>
