<svg width="34" height="29" viewBox="0 0 34 29" fill="none" xmlns="http://www.w3.org/2000/svg">
<path d="M17.8494 27.9463H7.73658C2.68014 27.9463 1 24.586 1 21.2097V7.73658C1 2.68014 2.68014 1 7.73658 1H17.8494C22.9059 1 24.586 2.68014 24.586 7.73658V21.2097C24.586 26.2662 22.8899 27.9463 17.8494 27.9463Z" stroke="white" stroke-width="1.8" stroke-linecap="round" stroke-linejoin="round"/>
<path d="M29.0333 22.6353L24.585 19.515V9.41817L29.0333 6.29791C31.2095 4.77778 33.0017 5.70585 33.0017 8.37808V20.5711C33.0017 23.2434 31.2095 24.1714 29.0333 22.6353Z" stroke="white" stroke-width="1.8" stroke-linecap="round" stroke-linejoin="round"/>
<path d="M16.199 12.8737C17.5246 12.8737 18.5992 11.799 18.5992 10.4734C18.5992 9.14785 17.5246 8.07324 16.199 8.07324C14.8734 8.07324 13.7988 9.14785 13.7988 10.4734C13.7988 11.799 14.8734 12.8737 16.199 12.8737Z" stroke="white" stroke-width="1.8" stroke-linecap="round" stroke-linejoin="round"/>
</svg>
