<svg width="22" height="23" viewBox="0 0 22 23" fill="none" xmlns="http://www.w3.org/2000/svg">
<g clip-path="url(#clip0_9_615)">
<path d="M11 2.28945C13.9391 2.28945 14.2871 2.30234 15.443 2.35391C16.5172 2.40117 17.0973 2.58164 17.484 2.73203C17.9953 2.92969 18.3648 3.17031 18.7473 3.55273C19.134 3.93945 19.3703 4.30469 19.568 4.81602C19.7184 5.20273 19.8988 5.78711 19.9461 6.85703C19.9977 8.01719 20.0105 8.36523 20.0105 11.3C20.0105 14.2391 19.9977 14.5871 19.9461 15.743C19.8988 16.8172 19.7184 17.3973 19.568 17.784C19.3703 18.2953 19.1297 18.6648 18.7473 19.0473C18.3605 19.434 17.9953 19.6703 17.484 19.868C17.0973 20.0184 16.5129 20.1988 15.443 20.2461C14.2828 20.2977 13.9348 20.3105 11 20.3105C8.06094 20.3105 7.71289 20.2977 6.55703 20.2461C5.48281 20.1988 4.90273 20.0184 4.51602 19.868C4.00469 19.6703 3.63516 19.4297 3.25273 19.0473C2.86602 18.6605 2.62969 18.2953 2.43203 17.784C2.28164 17.3973 2.10117 16.8129 2.05391 15.743C2.00234 14.5828 1.98945 14.2348 1.98945 11.3C1.98945 8.36094 2.00234 8.01289 2.05391 6.85703C2.10117 5.78281 2.28164 5.20273 2.43203 4.81602C2.62969 4.30469 2.87031 3.93516 3.25273 3.55273C3.63945 3.16602 4.00469 2.92969 4.51602 2.73203C4.90273 2.58164 5.48711 2.40117 6.55703 2.35391C7.71289 2.30234 8.06094 2.28945 11 2.28945ZM11 0.308594C8.01367 0.308594 7.63984 0.321484 6.4668 0.373047C5.29805 0.424609 4.49453 0.613672 3.79844 0.884375C3.07227 1.16797 2.45781 1.5418 1.84766 2.15625C1.2332 2.76641 0.859375 3.38086 0.575781 4.10273C0.305078 4.80313 0.116016 5.60234 0.0644531 6.77109C0.0128906 7.94844 0 8.32227 0 11.3086C0 14.2949 0.0128906 14.6687 0.0644531 15.8418C0.116016 17.0105 0.305078 17.8141 0.575781 18.5102C0.859375 19.2363 1.2332 19.8508 1.84766 20.4609C2.45781 21.0711 3.07227 21.4492 3.79414 21.7285C4.49453 21.9992 5.29375 22.1883 6.4625 22.2398C7.63555 22.2914 8.00937 22.3043 10.9957 22.3043C13.982 22.3043 14.3559 22.2914 15.5289 22.2398C16.6977 22.1883 17.5012 21.9992 18.1973 21.7285C18.9191 21.4492 19.5336 21.0711 20.1437 20.4609C20.7539 19.8508 21.132 19.2363 21.4113 18.5145C21.682 17.8141 21.8711 17.0148 21.9227 15.8461C21.9742 14.673 21.9871 14.2992 21.9871 11.3129C21.9871 8.32656 21.9742 7.95273 21.9227 6.77969C21.8711 5.61094 21.682 4.80742 21.4113 4.11133C21.1406 3.38086 20.7668 2.76641 20.1523 2.15625C19.5422 1.54609 18.9277 1.16797 18.2059 0.888672C17.5055 0.617969 16.7063 0.428906 15.5375 0.377344C14.3602 0.321484 13.9863 0.308594 11 0.308594Z" fill="#999590"/>
<path d="M11 5.6582C7.88047 5.6582 5.34961 8.18906 5.34961 11.3086C5.34961 14.4281 7.88047 16.959 11 16.959C14.1195 16.959 16.6504 14.4281 16.6504 11.3086C16.6504 8.18906 14.1195 5.6582 11 5.6582ZM11 14.9738C8.97617 14.9738 7.33477 13.3324 7.33477 11.3086C7.33477 9.28477 8.97617 7.64336 11 7.64336C13.0238 7.64336 14.6652 9.28477 14.6652 11.3086C14.6652 13.3324 13.0238 14.9738 11 14.9738Z" fill="#999590"/>
<path d="M18.193 5.43474C18.193 6.16521 17.6 6.75388 16.8738 6.75388C16.1434 6.75388 15.5547 6.16092 15.5547 5.43474C15.5547 4.70427 16.1477 4.1156 16.8738 4.1156C17.6 4.1156 18.193 4.70857 18.193 5.43474Z" fill="#999590"/>
</g>
<defs>
<clipPath id="clip0_9_615">
<rect width="22" height="22" fill="white" transform="translate(0 0.308594)"/>
</clipPath>
</defs>
</svg>
