<svg width="22" height="23" viewBox="0 0 22 23" fill="none" xmlns="http://www.w3.org/2000/svg">
<path d="M20.3715 0.308594H1.62422C0.726172 0.308594 0 1.01758 0 1.89414V20.7188C0 21.5953 0.726172 22.3086 1.62422 22.3086H20.3715C21.2695 22.3086 22 21.5953 22 20.723V1.89414C22 1.01758 21.2695 0.308594 20.3715 0.308594ZM6.52695 19.0559H3.26133V8.5543H6.52695V19.0559ZM4.89414 7.12344C3.8457 7.12344 2.99922 6.27695 2.99922 5.23281C2.99922 4.18867 3.8457 3.34219 4.89414 3.34219C5.93828 3.34219 6.78477 4.18867 6.78477 5.23281C6.78477 6.27266 5.93828 7.12344 4.89414 7.12344ZM18.7473 19.0559H15.4859V13.9512C15.4859 12.7352 15.4645 11.1668 13.7887 11.1668C12.0914 11.1668 11.8336 12.4945 11.8336 13.8652V19.0559H8.57656V8.5543H11.7047V9.98945H11.7477C12.1816 9.16445 13.2473 8.29219 14.8328 8.29219C18.1371 8.29219 18.7473 10.4664 18.7473 13.2938V19.0559V19.0559Z" fill="#999590"/>
</svg>
