<svg width="187" height="53" viewBox="0 0 187 53" fill="none" xmlns="http://www.w3.org/2000/svg">
<path d="M53.38 38V13.5H58.7L66.505 29.04L74.205 13.5H79.525V38H75.045V21.095L68.22 34.5H64.685L57.86 21.095V38H53.38ZM92.2234 38.42C90.4734 38.42 88.9218 38.0467 87.5684 37.3C86.2151 36.5533 85.1534 35.5033 84.3834 34.15C83.6134 32.7967 83.2284 31.2333 83.2284 29.46C83.2284 27.6633 83.6018 26.065 84.3484 24.665C85.1184 23.265 86.1684 22.18 87.4984 21.41C88.8518 20.6167 90.4384 20.22 92.2584 20.22C93.9618 20.22 95.4668 20.5933 96.7734 21.34C98.0801 22.0867 99.0951 23.1133 99.8184 24.42C100.565 25.7033 100.938 27.1383 100.938 28.725C100.938 28.9817 100.927 29.25 100.903 29.53C100.903 29.81 100.892 30.1017 100.868 30.405H87.6734C87.7668 31.7583 88.2334 32.82 89.0734 33.59C89.9368 34.36 90.9751 34.745 92.1884 34.745C93.0984 34.745 93.8568 34.5467 94.4634 34.15C95.0934 33.73 95.5601 33.1933 95.8634 32.54H100.413C100.087 33.6367 99.5384 34.64 98.7684 35.55C98.0218 36.4367 97.0884 37.1367 95.9684 37.65C94.8718 38.1633 93.6234 38.42 92.2234 38.42ZM92.2584 23.86C91.1618 23.86 90.1934 24.175 89.3534 24.805C88.5134 25.4117 87.9768 26.345 87.7434 27.605H96.3884C96.3184 26.4617 95.8984 25.5517 95.1284 24.875C94.3584 24.1983 93.4018 23.86 92.2584 23.86ZM112.301 38.42C110.668 38.42 109.21 38.0233 107.926 37.23C106.643 36.4367 105.628 35.3517 104.881 33.975C104.135 32.5983 103.761 31.035 103.761 29.285C103.761 27.535 104.135 25.9833 104.881 24.63C105.628 23.2533 106.643 22.18 107.926 21.41C109.21 20.6167 110.668 20.22 112.301 20.22C113.608 20.22 114.751 20.465 115.731 20.955C116.711 21.445 117.505 22.1333 118.111 23.02V12.8H122.591V38H118.601L118.111 35.515C117.551 36.285 116.805 36.9617 115.871 37.545C114.961 38.1283 113.771 38.42 112.301 38.42ZM113.246 34.5C114.693 34.5 115.871 34.0217 116.781 33.065C117.715 32.085 118.181 30.8367 118.181 29.32C118.181 27.8033 117.715 26.5667 116.781 25.61C115.871 24.63 114.693 24.14 113.246 24.14C111.823 24.14 110.645 24.6183 109.711 25.575C108.778 26.5317 108.311 27.7683 108.311 29.285C108.311 30.8017 108.778 32.05 109.711 33.03C110.645 34.01 111.823 34.5 113.246 34.5ZM131.458 38L125.088 20.64H129.778L134.188 33.765L138.598 20.64H143.288L136.883 38H131.458ZM148.144 17.945C147.327 17.945 146.651 17.7 146.114 17.21C145.601 16.72 145.344 16.1017 145.344 15.355C145.344 14.6083 145.601 14.0017 146.114 13.535C146.651 13.045 147.327 12.8 148.144 12.8C148.961 12.8 149.626 13.045 150.139 13.535C150.676 14.0017 150.944 14.6083 150.944 15.355C150.944 16.1017 150.676 16.72 150.139 17.21C149.626 17.7 148.961 17.945 148.144 17.945ZM145.904 38V20.64H150.384V38H145.904ZM162.41 38C160.59 38 159.132 37.5567 158.035 36.67C156.939 35.7833 156.39 34.2083 156.39 31.945V24.385H153.415V20.64H156.39L156.915 15.985H160.87V20.64H165.56V24.385H160.87V31.98C160.87 32.82 161.045 33.4033 161.395 33.73C161.769 34.0333 162.399 34.185 163.285 34.185H165.455V38H162.41ZM175.007 38.42C173.513 38.42 172.288 38.1867 171.332 37.72C170.375 37.23 169.663 36.5883 169.197 35.795C168.73 35.0017 168.497 34.1267 168.497 33.17C168.497 31.56 169.127 30.2533 170.387 29.25C171.647 28.2467 173.537 27.745 176.057 27.745H180.467V27.325C180.467 26.135 180.128 25.26 179.452 24.7C178.775 24.14 177.935 23.86 176.932 23.86C176.022 23.86 175.228 24.0817 174.552 24.525C173.875 24.945 173.455 25.575 173.292 26.415H168.917C169.033 25.155 169.453 24.0583 170.177 23.125C170.923 22.1917 171.88 21.48 173.047 20.99C174.213 20.4767 175.52 20.22 176.967 20.22C179.44 20.22 181.388 20.8383 182.812 22.075C184.235 23.3117 184.947 25.0617 184.947 27.325V38H181.132L180.712 35.2C180.198 36.1333 179.475 36.9033 178.542 37.51C177.632 38.1167 176.453 38.42 175.007 38.42ZM176.022 34.92C177.305 34.92 178.297 34.5 178.997 33.66C179.72 32.82 180.175 31.7817 180.362 30.545H176.547C175.357 30.545 174.505 30.7667 173.992 31.21C173.478 31.63 173.222 32.155 173.222 32.785C173.222 33.4617 173.478 33.9867 173.992 34.36C174.505 34.7333 175.182 34.92 176.022 34.92Z" fill="black"/>
<path d="M23.7188 8.99734H11.5947C11.5947 15.3867 6.39647 20.5929 -0.000785828 20.5929V32.709C13.1014 32.709 23.7188 22.0916 23.7188 8.99734Z" fill="black"/>
<path d="M11.2805 43.9824H23.4045C23.4045 37.5931 28.6027 32.3869 35 32.3869V20.2629C21.8979 20.2708 11.2805 30.8882 11.2805 43.9824Z" fill="black"/>
</svg>
