<svg width="23" height="24" viewBox="0 0 23 24" fill="none" xmlns="http://www.w3.org/2000/svg">
<path d="M7.23557 21.1525C15.9127 21.1525 20.66 13.9619 20.66 7.72809C20.66 7.52594 20.6555 7.3193 20.6465 7.11715C21.57 6.44929 22.367 5.62205 23 4.6743C22.1399 5.05697 21.2267 5.30688 20.2917 5.41551C21.2762 4.82534 22.0134 3.89822 22.3666 2.806C21.4404 3.35492 20.4274 3.74214 19.3712 3.95106C18.6596 3.19489 17.7186 2.69421 16.6939 2.52644C15.6691 2.35867 14.6176 2.53315 13.702 3.0229C12.7864 3.51265 12.0576 4.2904 11.6283 5.2359C11.199 6.1814 11.0931 7.24198 11.3271 8.25368C9.45156 8.15956 7.61677 7.67236 5.94165 6.82365C4.26653 5.97495 2.78846 4.78368 1.60326 3.32709C1.00088 4.36567 0.816554 5.59463 1.08774 6.76423C1.35892 7.93382 2.06527 8.95628 3.06322 9.62379C2.31402 9.60001 1.58123 9.39829 0.925391 9.03532V9.09372C0.924719 10.1836 1.30151 11.2401 1.99171 12.0836C2.68192 12.9271 3.64293 13.5056 4.71141 13.7207C4.01739 13.9106 3.28898 13.9382 2.58256 13.8015C2.88406 14.7389 3.47067 15.5587 4.26053 16.1465C5.05039 16.7344 6.00407 17.061 6.9885 17.0808C5.31724 18.3936 3.25275 19.1057 1.12754 19.1023C0.75065 19.1017 0.374132 19.0786 0 19.0331C2.15899 20.4182 4.67047 21.1539 7.23557 21.1525Z" fill="#999590"/>
</svg>
